<svg width="589" height="692" viewBox="0 0 589 692" fill="none" xmlns="http://www.w3.org/2000/svg">
<ellipse cx="294.5" cy="644" rx="294.5" ry="21" fill="#D7DCE7"/>
<path opacity="0.95" d="M262.761 354.046H120.951C109.748 354.046 100.665 344.964 100.665 333.76V191.95C100.665 180.746 109.748 171.664 120.951 171.664H262.761C273.965 171.664 283.048 180.746 283.048 191.95V333.76C283.048 344.964 273.965 354.046 262.761 354.046Z" fill="url(#paint0_linear_45_835)"/>
<path d="M234.076 312.524H149.636V316.695H234.076V312.524Z" fill="#96BFE6"/>
<path d="M222.116 325.667H161.596V329.838H222.116V325.667Z" fill="#96BFE6"/>
<path opacity="0.95" d="M538.764 527.905H336.949C323.75 527.905 313.051 517.206 313.051 504.007V258.817C313.051 245.618 323.75 234.918 336.949 234.918H538.764C551.962 234.918 562.662 245.618 562.662 258.817V504.007C562.662 517.206 551.962 527.905 538.764 527.905Z" fill="url(#paint1_linear_45_835)"/>
<path d="M446.025 407.762H426.227V411.428H446.025V407.762Z" fill="#0010F7"/>
<path d="M466.264 441.36H351.066V448.459H466.264V441.36Z" fill="#96BFE6"/>
<path d="M444.221 475.442H351.066V482.541H444.221V475.442Z" fill="#96BFE6"/>
<path d="M405.677 458.4H351.066V465.499H405.677V458.4Z" fill="#96BFE6"/>
<path d="M496.402 264.136V267.722H517.512V287.534H521.097V264.136H496.402ZM353.049 287.534H356.635V267.722H377.745V264.136H353.049V287.534ZM517.512 389.764V409.583H496.402V413.168H521.097V389.764H517.512V389.764ZM356.635 389.764H353.049V413.169H377.745V409.583H356.635V389.764Z" fill="#0010F7"/>
<path d="M509.921 483.062C498.28 483.062 488.809 473.591 488.809 461.95C488.809 450.309 498.28 440.838 509.921 440.838C521.562 440.838 531.033 450.309 531.033 461.95C531.033 473.591 521.562 483.062 509.921 483.062ZM509.921 444.925C500.533 444.925 492.895 452.562 492.895 461.95C492.895 471.338 500.533 478.976 509.921 478.976C519.309 478.976 526.947 471.338 526.947 461.95C526.947 452.562 519.309 444.925 509.921 444.925Z" fill="#0010F7"/>
<path d="M508.575 470.259L498.983 460.668L501.873 457.779L508.575 464.481L517.969 455.086L520.859 457.975L508.575 470.259Z" fill="#0010F7"/>
<path opacity="0.95" d="M253.322 178.483H130.39V283.958H253.322V178.483Z" fill="url(#paint2_linear_45_835)"/>
<path opacity="0.95" d="M418.282 224.805H317.64C308.429 224.805 300.963 217.338 300.963 208.128V120.802C300.963 111.591 308.43 104.125 317.64 104.125H418.282C427.493 104.125 434.959 111.591 434.959 120.802V208.128C434.959 217.339 427.493 224.805 418.282 224.805Z" fill="url(#paint3_linear_45_835)"/>
<path d="M372.766 201.98H362.139V203.949H372.766V201.98Z" fill="#0010F7"/>
<path d="M399.81 125.964V127.888H411.142V138.524H413.067V125.964H399.81ZM322.855 138.524H324.779V127.888H336.111V125.964H322.855V138.524H322.855ZM411.142 193.403V204.043H399.81V205.967H413.067V193.403H411.142ZM324.78 193.403H322.855V205.967H336.112V204.043H324.78V193.403H324.78Z" fill="#0010F7"/>
<path d="M198.954 292.145H184.759V294.774H198.954V292.145Z" fill="#0010F7"/>
<path d="M234.397 190.609V193.18H249.533V207.386H252.104V190.609H234.397ZM131.608 207.386H134.179V193.18H149.316V190.609H131.608V207.386ZM249.534 280.688V294.899H234.397V297.47H252.104V280.688H249.534ZM134.179 280.688H131.608V297.47H149.315V294.899H134.179V280.688Z" fill="#0010F7"/>
<path d="M513.236 375.018H489.557C487.999 363.681 486.084 350.738 486.084 350.738C486.084 350.738 485.126 361.419 483.962 375.018H389.205C388.341 362.789 387.299 353.638 386.924 353.45C386.38 353.178 383.001 364.028 380.194 375.018H354.543C361.141 346.599 373.446 301.003 380.56 298.272C390.687 294.377 431.984 281.65 431.984 281.65H455.552C455.552 281.65 497.431 293.598 501.326 306.588C504.423 316.94 511.256 351.076 513.236 375.018Z" fill="#0010F7"/>
<path d="M444.852 205.195C444.852 205.195 466.858 208.662 463.507 243.093C460.157 277.523 440.734 274.701 439.436 274.666C438.138 274.631 419.938 275.294 418.519 233.256C418.519 233.257 417.9 202.171 444.852 205.195Z" fill="#EEA987"/>
<path d="M455.124 264.525C455.124 264.525 454.521 278.687 455.891 281.752C457.261 284.818 437.732 294.665 425.82 283.692C425.82 283.692 428.697 268.301 427.897 262.846C427.097 257.392 455.124 264.525 455.124 264.525Z" fill="#EEA987"/>
<path d="M463.847 233.367C463.847 233.367 466.257 230.793 467.141 233.399C468.025 236.005 463.402 247.648 463.705 248.17C463.705 248.17 463.265 249.181 462.686 248.624C462.108 248.068 463.847 233.367 463.847 233.367Z" fill="#EEA987"/>
<path d="M418.768 232.932C418.768 232.932 416.408 230.312 415.474 232.9C414.54 235.488 418.937 247.218 418.624 247.735C418.624 247.735 419.045 248.754 419.634 248.209C420.223 247.663 418.768 232.932 418.768 232.932Z" fill="#EEA987"/>
<path d="M463.837 238.648L460.687 242.86C460.687 242.86 460.776 233.626 460.27 232.178C459.765 230.731 458.992 226.308 458.569 225.265C458.146 224.222 439.671 219.045 423.353 226.776C423.353 226.776 424.07 233.416 422.506 234.007C420.942 234.598 421.709 244.821 421.709 244.821L419.119 241.898C419.119 241.898 415.154 215.409 416.133 212.648C417.112 209.887 420.232 193.288 453.711 203.142C453.711 203.142 464.149 200.931 466.243 208.137C468.338 215.343 463.837 238.648 463.837 238.648Z" fill="#D98B52"/>
<path d="M455.891 281.752C455.891 281.752 460.855 282.812 440.079 302.723C440.079 302.723 425.343 286.421 425.82 283.692C426.297 280.962 455.891 281.752 455.891 281.752Z" fill="#EEA987"/>
<path d="M440.079 302.723L445.749 312.419L462.568 283.861L455.285 278.78L440.079 302.723Z" fill="#0010F7"/>
<path d="M440.079 302.723L426.319 280.829L418.518 285.842L432.504 312.419L440.079 302.723Z" fill="#0010F7"/>
<path d="M435.814 363.38C435.983 366.609 436.058 370.57 436.067 375.018H435.288C435.279 370.588 435.204 366.637 435.035 363.418C433.759 339.128 439.643 309.572 439.681 302.646L440.441 302.796C440.403 309.722 434.538 339.194 435.814 363.38Z" fill="#0010F7"/>
<path d="M429.945 270.614C429.945 270.614 435.173 276.142 442.559 274.668C449.944 273.194 453.223 269.812 453.223 269.812C453.223 269.812 450.307 277.124 441.769 277.793C433.232 278.462 429.945 270.614 429.945 270.614Z" fill="#C78D71"/>
<path d="M174.966 191.584C174.95 191.584 174.933 191.582 174.916 191.578C174.419 191.457 173.633 189.077 173.48 188.601C173.444 188.47 173.367 188.231 173.26 187.9C172.643 185.994 171.2 181.532 171.762 179.822C171.94 179.283 172.216 178.97 172.585 178.894C173.375 178.731 174.278 179.733 174.316 179.776L174.335 179.798L174.339 179.827C174.544 181.704 175.545 191.09 175.113 191.52C175.071 191.563 175.02 191.584 174.966 191.584ZM172.767 179.057C172.718 179.057 172.669 179.062 172.622 179.072C172.322 179.135 172.091 179.406 171.935 179.879C171.391 181.533 172.874 186.118 173.433 187.844C173.54 188.178 173.618 188.419 173.655 188.55C174.02 189.689 174.667 191.331 174.959 191.402C174.966 191.404 174.972 191.405 174.985 191.393C175.26 191.02 174.628 184.145 174.161 179.877C174.04 179.747 173.367 179.057 172.767 179.057Z" fill="#EEA886"/>
<path d="M191.325 154.165C191.325 154.165 203.439 152.896 207.803 164.594C212.167 176.292 216.278 180.121 216.792 186.267C218.873 211.123 230.48 205.501 227.216 219.829C223.951 234.157 221.691 236.325 221.691 236.325L193.94 230.884L165.828 230.974C165.828 230.974 176.826 225.482 174.378 213.783C171.929 202.085 165.828 182.912 169.274 169.853C172.72 156.795 184.086 155.163 191.325 154.165Z" fill="#16202E"/>
<path d="M206.119 191.584C206.065 191.584 206.014 191.562 205.972 191.52C205.54 191.09 206.542 181.704 206.747 179.827L206.75 179.798L206.769 179.776C206.807 179.733 207.71 178.729 208.5 178.894C208.869 178.97 209.145 179.282 209.323 179.822C209.886 181.532 208.442 185.994 207.826 187.899C207.719 188.231 207.642 188.47 207.606 188.597C207.453 189.077 206.666 191.457 206.17 191.578C206.153 191.582 206.136 191.584 206.119 191.584ZM206.924 179.876C206.458 184.144 205.826 191.02 206.102 191.394C206.113 191.405 206.119 191.404 206.126 191.402C206.419 191.331 207.066 189.689 207.432 188.546C207.467 188.418 207.545 188.177 207.653 187.844C208.211 186.118 209.694 181.533 209.15 179.879C208.995 179.406 208.764 179.134 208.464 179.072C207.833 178.942 207.055 179.736 206.924 179.876Z" fill="#EEA886"/>
<path d="M248.282 265.925H230.989C227.404 259.39 224.49 254.279 224.49 254.279C224.49 254.279 222.16 258.531 220.352 265.925H162.139C161.25 261.312 161.195 256.891 161.382 253.744C161.382 253.744 158.27 259.366 154.661 265.925H135.104C140.293 256.207 150.018 238.512 152.228 236.206C155.003 233.298 171.088 222.181 182.572 218.553C194.062 214.925 200.591 218.427 200.591 218.427C200.591 218.427 212.387 220.553 223.295 224.878C227.583 226.577 239.428 248.452 248.282 265.925Z" fill="#0010F7"/>
<path d="M192.923 161.007C192.923 161.007 208.965 163.322 206.617 187.005C204.269 210.688 190.11 208.808 189.163 208.788C188.217 208.768 174.959 209.281 173.812 180.382C173.812 180.382 173.278 159.012 192.923 161.007Z" fill="#8E4F3A"/>
<path d="M200.05 204.588C200.05 204.588 199.057 216.907 201.43 220.598C203.803 224.288 199.401 229.297 190.331 227.584C181.262 225.87 181.789 220.729 181.789 220.729C181.789 220.729 184.329 213.127 183.586 207.042C182.844 200.956 200.05 204.588 200.05 204.588Z" fill="#8E4F3A"/>
<path d="M191.088 169.591C191.088 169.591 198.584 177.471 202.065 181.461C205.547 185.452 205.948 193.16 205.948 193.16C205.948 193.16 211.813 185.996 209.36 177.653C206.907 169.31 201.104 153.078 186.413 158.065C171.722 163.053 171.178 184.998 172.901 195.88C172.901 195.88 179.496 171.858 191.088 169.591Z" fill="#16202E"/>
<path d="M205.683 219.51C205.683 219.51 194.558 247.689 187.795 252.586C187.795 252.586 178.913 223.846 179.533 219.638C179.533 219.638 192.933 214.388 205.683 219.51Z" fill="#8E4F3A"/>
<path d="M182.172 212.695C182.172 212.695 162.338 230.342 167.486 241.351C171.879 250.748 187.455 244.985 184.886 235.14C182.316 225.295 182.172 212.695 182.172 212.695Z" fill="#16202E"/>
<path d="M184.766 207.715C184.766 207.715 191.601 210.946 198.254 206.174C198.254 206.174 196.406 209.99 191.51 210.533C186.613 211.075 184.766 207.715 184.766 207.715Z" fill="#633029"/>
<path d="M360.8 142.53C360.8 142.53 354.223 167.285 352.85 172.863C352.442 174.543 351.123 177.447 349.449 180.76C349.437 180.784 349.425 180.807 349.407 180.837C349.047 181.564 348.875 182.227 348.792 182.848C348.526 184.912 349.319 186.539 347.947 188.988L347.698 190.017H334.679C336.199 185.504 338.128 179.76 339.671 175.135C340.966 171.231 341.99 168.125 342.262 167.226C343.066 164.541 346.018 155.845 348.526 150.072C349.402 148.061 352.773 146.073 355.76 144.636C358.434 143.364 360.8 142.53 360.8 142.53Z" fill="#323657"/>
<path d="M352.09 107.169C352.09 107.169 347.939 80.3197 370.176 80.8149C392.413 81.31 392.116 94.5863 391.72 107.763C391.323 120.94 382.803 119.949 392.413 138.277C402.023 156.606 384.091 156.606 384.091 156.606L370.177 137.485L352.09 107.169Z" fill="#FCCCA2"/>
<path d="M367.744 83.3911C367.744 83.3911 352.684 85.769 352.09 107.169C351.496 128.569 356.152 133.126 369.329 128.668C382.505 124.21 386.667 101.819 386.964 98.3513C387.261 94.8836 388.054 80.8151 367.744 83.3911Z" fill="#EEA886"/>
<path d="M394.191 157.826C394.244 165.19 385.78 182.806 384.473 188.248C384.319 188.881 384.153 189.466 383.988 190.017H342.889C342.676 187.479 342.475 185.308 342.375 184.084C342.049 180.061 337.974 171.396 338.11 167.362C338.252 163.251 340.269 159.702 343.091 155.312C343.966 153.952 344.888 152.568 345.806 151.219C348.799 146.83 351.786 142.843 353.253 141.471C354.347 140.454 355.364 139.673 356.252 139.081C356.258 139.075 356.258 139.075 356.258 139.075C358.104 137.845 359.346 137.448 359.346 137.448L372.288 135.378C372.288 135.378 380.356 138.3 385 139.382C384.999 139.382 394.055 140.708 394.191 157.826Z" fill="#0010F7"/>
<path d="M356.26 139.075L348.757 150.899L341.833 161.811C341.849 161.753 342.31 160.101 343.093 155.315C343.242 154.407 343.401 153.386 343.572 152.242C343.623 151.903 343.696 151.567 343.79 151.235C343.79 151.235 343.79 151.235 343.79 151.234C346.753 144.402 355.916 139.25 356.251 139.079C356.256 139.076 356.26 139.075 356.26 139.075Z" fill="#0010F7"/>
<path d="M377.801 119.028C376.495 121.493 375.117 136.795 375.117 136.795C375.117 136.795 356.698 143.756 358.583 139.819C359.438 138.032 359.689 135.713 359.707 133.713C359.723 132.137 359.594 130.76 359.502 129.996C359.454 129.594 359.417 129.362 359.417 129.362C359.417 129.362 379.106 116.562 377.801 119.028Z" fill="#EEA886"/>
<path d="M361.601 98.7474C361.601 98.7474 369.329 111.33 376.363 116.284C383.397 121.237 379.83 125.2 379.83 125.2C379.83 125.2 398.184 86.5617 380.734 83.8868C363.285 81.2119 352.585 81.0134 352.09 107.169C352.09 107.169 360.016 98.5496 361.601 98.7474Z" fill="#FCCCA2"/>
<path d="M370.004 128.42C367.177 132.591 359.708 133.713 359.708 133.713C359.708 133.713 359.708 133.713 359.707 133.713C359.723 132.137 359.594 130.76 359.502 129.996C364.301 130.921 370.004 128.42 370.004 128.42Z" fill="#A77860"/>
<path d="M343.821 151.153H343.82C343.82 151.153 343.42 151.982 343.092 155.315L345.805 151.221C345.805 151.221 350.651 144.274 352.31 142.468C353.971 140.661 356.251 139.079 356.251 139.079C356.251 139.079 346.718 143.66 343.821 151.153Z" fill="#EBEEFF"/>
<path d="M380.473 161.513C380.473 161.513 392.295 156.876 395.792 156.606C395.792 156.606 393.414 137.623 381.802 139.635C370.19 141.647 380.473 161.513 380.473 161.513Z" fill="#0010F7"/>
<path d="M359.344 137.447C359.344 137.447 350.665 150.793 353.603 151.959C356.541 153.124 372.444 150.403 379.206 137.727C379.206 137.727 369.096 132.543 359.344 137.447Z" fill="#EEA886"/>
<path d="M395.794 156.608C395.191 167.072 392.222 176.997 389.773 186.107C389.418 187.426 389.074 188.733 388.755 190.017H364.686C364.628 186.408 364.639 183.226 364.751 180.57C365.964 151.527 375.168 136.253 375.168 136.253C375.168 136.253 378.108 137.241 386.567 139.637C392.364 141.275 394.553 148.651 395.351 153.123C395.351 153.123 395.357 153.141 395.363 153.177C395.717 155.194 395.794 156.608 395.794 156.608Z" fill="#323657"/>
<path d="M359.339 137.455C359.244 137.62 357.659 140.282 355.76 144.636C352.909 151.172 349.348 161.523 349.046 172.928C348.952 176.589 348.224 182.523 347.118 190.017H342.315C341.83 183.747 340.682 178.737 339.671 175.134C339.015 172.798 338.411 171.053 338.086 169.947C336.553 164.736 341.451 157.797 343.09 155.313C344.734 152.834 348.662 141.43 359.339 137.455Z" fill="#323657"/>
<path d="M403.46 190.017H390.536C390.536 189.177 390.246 187.804 389.773 186.107C387.424 177.76 380.474 161.511 380.474 161.511C380.474 161.511 370.075 144.517 379.93 140.187C389.784 135.857 394.026 147.96 395.351 153.124C395.351 153.124 395.357 153.141 395.363 153.177C395.688 154.413 401.556 176.784 403.46 190.017Z" fill="#323657"/>
<path d="M192.671 432.32C192.671 432.32 197.187 432.257 198.795 430.517C200.403 428.776 203.243 427.217 204.154 426.774C205.372 426.181 208.742 422.904 209.165 424.504C209.588 426.104 203.799 430.162 202.697 431.258C201.595 432.354 207.506 432.831 208.374 433.894C209.24 434.957 206.224 446.142 202.285 445.275C198.346 444.409 195.121 440.437 194.376 440.446C193.632 440.454 191.468 439.948 191.468 439.948L192.671 432.32Z" fill="#EEA886"/>
<path d="M207.536 433.438C207.536 433.438 219.293 437.028 219.777 438.046C220.261 439.063 219.933 439.808 218.813 439.526C217.693 439.245 207.304 436.447 207.304 436.447C207.304 436.447 220.153 443.472 220.731 444.175C221.07 444.587 220.506 446.055 219.884 445.97C219.262 445.885 206.035 439.818 206.035 439.818C206.035 439.818 218.017 446.404 218.315 447.186C218.577 447.871 217.774 449.132 216.844 448.719C215.914 448.306 204.367 442.967 204.367 442.967C204.367 442.967 212.716 448.434 212.586 449.334C212.507 449.885 212.069 451.17 209.967 449.675C207.865 448.179 202.475 445.308 202.475 445.308L207.536 433.438Z" fill="#EEA886"/>
<path d="M167.939 630.652C167.939 630.652 171.711 636.295 177.002 637.514C182.292 638.733 187.503 640.672 187.543 644.01C187.582 647.349 172.247 649.34 166.193 645.974C157.157 640.951 156.238 642.466 155.236 639.955C154.235 637.444 156.44 630.729 156.375 629.931C156.294 628.943 167.939 630.652 167.939 630.652Z" fill="#353A3D"/>
<path d="M167.353 627.868C167.353 627.868 168.042 630.594 167.939 630.652C167.837 630.709 156.017 632.117 156.375 629.93C156.665 628.156 157.079 626.229 157.079 626.229L167.353 627.868Z" fill="#81807E"/>
<path d="M93.7188 630.277C93.7188 630.277 96.409 635.675 101.006 637.514C105.919 639.479 109.859 641.738 109.77 644.991C109.68 648.244 97.7585 651.54 89.0855 645.297C83.6057 641.353 81.8692 641.333 80.9899 638.85C80.111 636.366 82.5165 629.911 82.4837 629.131C82.4429 628.166 93.7188 630.277 93.7188 630.277Z" fill="#353A3D"/>
<path d="M93.853 627.475C93.853 627.475 93.8205 630.225 93.7185 630.277C93.6165 630.329 82.1929 631.271 82.4834 629.131C82.714 627.43 83.5919 625.376 83.5919 625.376L93.853 627.475Z" fill="#81807E"/>
<path d="M135.738 462.588C135.738 462.588 150.742 520.069 156.455 533.358C161.748 545.669 163.494 562.888 164.224 571.536C165.14 582.414 170.596 624.772 171.238 627.952C171.879 631.133 153.587 629.711 153.587 629.711C153.587 629.711 140.975 556.473 135.738 545.785C132.244 538.653 111.968 487.504 109.648 490.45C107.328 493.395 104.451 544.644 102.733 553.151C101.015 561.659 95.74 628.879 95.74 628.879C95.74 628.879 83.9464 630.619 80.7964 627.952C80.7964 627.952 79.3625 570.555 80.4572 554.605C80.8745 548.527 73.335 481.724 83.0024 454.831C88.1115 440.618 135.738 462.588 135.738 462.588Z" fill="#2D3133"/>
<path d="M52.1661 421.367C52.1661 422.025 53.4071 424.654 55.389 428.436C58.2866 422.641 60.5628 417.881 61.3073 416.13C63.7491 410.363 76.3324 397.143 76.3324 397.143C76.3324 397.143 76.3324 397.152 76.3383 397.171C76.3383 397.176 76.34 397.182 76.3418 397.187C76.3438 397.191 76.346 397.196 76.346 397.202C76.3515 397.22 76.3567 397.238 76.3605 397.257C76.3695 397.288 76.3788 397.325 76.3916 397.369C76.3988 397.391 76.4047 397.415 76.4102 397.439C76.4158 397.457 76.4213 397.474 76.4248 397.492C77.1104 400.044 81.3174 415.999 81.472 423.858C81.6428 432.413 83.8751 448.242 83.8751 448.242L83.8841 448.243L86.5116 448.611L92.3251 449.431L93.0222 449.529L94.7137 449.766L110.131 451.935L115.598 452.704L116.338 452.809L119.463 453.248L128.094 454.462L130.294 454.771L130.315 454.775L131.962 455.007L134.242 455.326C134.242 455.326 134.242 455.326 134.244 455.325C134.307 455.24 136.462 452.291 136.129 445.74C135.917 441.511 135.408 433.565 135.619 426.193C135.619 426.155 135.623 426.116 135.623 426.08C135.623 425.986 135.629 425.894 135.63 425.8C135.634 425.767 135.634 425.737 135.636 425.706V425.689C135.77 421.639 136.127 417.8 136.882 414.884C137.392 412.909 137.732 410.955 137.954 409.124C137.965 409.033 137.976 408.945 137.987 408.857C138.026 408.517 138.063 408.18 138.094 407.85C138.585 402.736 138.199 398.844 138.175 398.616L138.184 398.634C138.34 398.974 139.466 403.099 140.94 408.19C143.433 416.796 146.923 428.168 148.41 428.714C150.573 429.51 185.6 439.884 193.164 440.946C194.039 441.069 194.547 441.068 194.595 440.913C194.63 440.803 194.664 440.689 194.7 440.571C195.619 437.541 196.882 432.391 197.084 431.56C197.104 431.485 197.113 431.444 197.113 431.444L195.758 431.038L157.646 419.616L140.223 369.374C139.859 369.084 135.581 367.012 132.455 365.526C129.268 364.009 125.426 361.781 121.947 359.874C120.173 358.903 118.494 358.017 117.043 357.352L116.821 357.251L116.819 357.249C114.42 356.151 112.825 355.425 112.825 355.425C112.825 355.425 112.823 355.425 112.818 355.425C112.761 355.419 112.384 355.382 111.775 355.326C108.429 355.008 98.03 354.033 94.546 353.829C94.259 353.811 94.0184 353.799 93.8327 353.796C93.6726 353.79 93.555 353.788 93.4814 353.794C93.0402 353.819 90.8981 354.568 88.0794 355.64H88.0776C87.9708 355.68 87.8643 355.721 87.7557 355.763C87.6233 355.813 87.4909 355.862 87.3571 355.914C87.1123 356.008 86.864 356.103 86.6122 356.201C86.1085 356.397 85.5902 356.6 85.0643 356.807C84.8841 356.879 84.6998 356.951 84.5144 357.024C78.877 359.262 72.4183 362.027 70.8827 363.13C69.8696 363.857 66.711 369.81 63.0486 377.172C58.3322 392.279 52.3552 415.405 52.1695 421.109C52.1678 421.2 52.1661 421.286 52.1661 421.367Z" fill="#DECBC4"/>
<path d="M134.243 455.324C134.243 455.324 135.403 456.712 135.738 462.587C135.738 462.587 88.0444 457.023 83.0024 454.831C83.0024 454.831 82.8053 448.355 83.8748 448.243C85.0497 448.119 134.243 455.324 134.243 455.324Z" fill="#495055"/>
<path d="M93.5706 352.176C93.7189 359.661 108.212 363.756 108.212 363.756C108.212 363.756 114.274 356.156 112.826 355.428C112.257 355.143 112.026 354.008 111.955 352.736C111.89 351.525 111.967 350.189 112.038 349.341C112.081 348.812 112.122 348.471 112.122 348.471C112.122 348.471 110.051 346.286 107.417 343.683C102.813 339.132 96.4851 333.301 96.4751 335.621C96.4744 335.743 96.4913 335.89 96.5283 336.06C97.6406 341.28 93.5706 352.176 93.5706 352.176Z" fill="#EEA886"/>
<path d="M94.7728 449.391C94.7728 449.391 93.7317 455.955 93.6418 457.666L91.4354 457.227C91.4354 457.227 92.0433 450.281 92.4004 449.117L94.7728 449.391Z" fill="#353A3D"/>
<path d="M130.264 454.558C130.264 454.558 131.1 460.525 131.12 462.779L128.786 462.475C128.786 462.475 128.307 455.024 128.041 454.246L130.264 454.558Z" fill="#353A3D"/>
<path d="M99.1524 341.209C99.1524 341.209 99.1524 341.209 99.1534 341.21C99.1821 341.254 99.7966 342.173 100.846 343.493C103.071 346.292 107.253 350.889 111.956 352.736C111.89 351.525 111.967 350.189 112.038 349.341C112.519 349.329 113 349.273 113.477 349.168C112.188 346.915 110.326 344.554 110.326 344.554L107.417 343.683L99.1524 341.209Z" fill="#A77860"/>
<path d="M96.3703 335.722C97.6245 338.449 98.8143 340.426 99.1524 341.209C99.1524 341.209 99.1524 341.209 99.1534 341.21C99.373 341.72 99.9719 342.552 100.846 343.493C103.234 346.066 107.674 349.46 112.038 349.341C112.519 349.329 113 349.273 113.477 349.168C115.24 348.782 117.32 347.964 118.466 345.722C127.507 328.019 120.961 313.544 120.961 313.544C120.961 313.544 96.2389 306.553 92.3704 313.995C89.6561 319.215 93.4247 329.313 96.3703 335.722Z" fill="#EEA886"/>
<path d="M120.961 313.544C120.961 313.544 123.257 313.417 123.824 309.064C124.385 304.763 123.251 303.571 123.251 303.571C123.251 303.571 113.045 299.299 109.38 298.743C105.714 298.188 96.7022 297.654 94.5898 300.07C94.5898 300.07 89.4572 298.877 88.0589 307.398C85.8404 320.915 95.6182 334.041 95.6182 334.041C95.6182 334.041 95.5348 325.21 97.4822 324.04C99.4296 322.87 101.111 325.652 101.111 325.652L105.094 326.366C105.094 326.366 99.0438 313.301 106.302 312.817C113.56 312.333 116.805 314.302 120.961 313.544Z" fill="#252E3B"/>
<path d="M101.001 322.133C100.622 318.242 93.5865 316.756 94.0577 320.835C94.529 324.912 97.9937 328.83 99.5942 328.692C101.195 328.554 101.29 325.098 101.001 322.133Z" fill="#EEA886"/>
<path d="M55.389 428.436C58.4539 434.283 63.2895 442.886 68.0643 451.228C67.4357 452.401 66.8212 453.564 66.2331 454.714C64.7971 457.523 63.5229 460.242 62.6184 462.777C61.5299 465.826 60.0168 473.635 62.9126 475.086L78.1695 483.507C78.1695 483.507 78.276 483.209 78.4786 482.657C78.9841 481.287 80.0799 478.356 81.5968 474.56C81.6466 474.437 81.799 474.075 82.0252 473.541C82.3284 472.826 82.7662 471.804 83.2661 470.637C83.4906 470.114 83.726 469.563 83.9705 468.997C84.2461 468.349 84.5331 467.682 84.818 467.018C85.2333 466.051 85.6472 465.089 86.0296 464.199C87.0704 461.776 87.8829 459.89 87.8829 459.89C87.9341 459.778 87.986 459.667 88.0371 459.555C88.5337 458.482 89.043 457.404 89.5613 456.33C90.3628 454.666 91.1885 453.009 92.0322 451.39C92.1169 451.224 92.2013 451.061 92.2877 450.897C92.4388 450.612 92.5892 450.327 92.74 450.046C92.8337 449.873 92.9277 449.7 93.0214 449.529C93.0418 449.49 93.0636 449.452 93.084 449.413C93.1224 449.345 93.1594 449.277 93.1978 449.209C97.6088 441.163 102.577 434.436 104.162 424.57C104.314 423.617 104.459 422.671 104.598 421.731C104.827 420.165 105.038 418.618 105.232 417.103C105.303 416.53 105.375 415.963 105.443 415.4C106.237 408.818 106.712 402.953 107.094 398.868C108.287 386.141 100.491 372.36 94.5069 363.848C91.3061 359.296 88.6253 356.249 88.1084 355.672C88.0956 355.661 88.0866 355.65 88.0772 355.641C87.9704 355.681 87.8639 355.721 87.7553 355.763C87.6229 355.814 87.4905 355.863 87.3567 355.914C87.1119 356.008 86.8636 356.104 86.6119 356.201C86.1081 356.398 85.5898 356.6 85.0639 356.808C84.8837 356.88 84.6994 356.951 84.514 357.025C78.7186 359.298 66.5139 362.655 64.9786 363.756C64.0924 364.39 62.109 370.198 59.82 377.534C55.104 392.642 52.3054 415.421 52.1691 421.11C52.1671 421.2 52.1653 421.287 52.1653 421.367C52.166 422.025 53.407 424.654 55.389 428.436ZM78.572 425.594C78.572 428.433 77.6491 431.683 76.2297 435.147C76.193 435.234 76.1581 435.322 76.1215 435.409C75.1433 433.321 74.2221 431.323 73.3964 429.472C73.3947 429.468 73.393 429.466 73.393 429.463C71.1223 424.381 69.5632 420.417 69.4767 418.848C68.9159 408.771 76.3386 397.171 76.3386 397.171C76.3386 397.177 76.3404 397.182 76.3421 397.188C76.3442 397.192 76.3462 397.197 76.3462 397.202C76.3518 397.221 76.3569 397.239 76.3608 397.257C76.3718 397.294 76.3825 397.331 76.3919 397.37C76.3991 397.392 76.405 397.416 76.4106 397.44C76.4161 397.458 76.4216 397.475 76.4251 397.493C77.9451 403.483 78.572 425.594 78.572 425.594Z" fill="#3C4145"/>
<path d="M107.552 463.565L64.0638 482.921C61.6036 484.016 58.7212 482.91 57.6265 480.45L45.7205 453.702C44.6255 451.242 45.7323 448.36 48.1925 447.264L91.6806 427.908C94.1404 426.813 97.0227 427.92 98.1178 430.38L110.023 457.128C111.119 459.587 110.012 462.47 107.552 463.565Z" fill="#B3A5A0"/>
<path d="M116.929 357.442C116.929 357.442 118.968 364.232 121.606 381.181C121.606 381.182 121.606 381.184 121.609 381.186C121.699 381.756 121.787 382.335 121.877 382.927C121.886 382.995 121.897 383.065 121.908 383.133C121.967 383.525 122.028 383.922 122.086 384.325C122.094 384.372 122.101 384.42 122.109 384.466C122.149 384.736 122.189 385.008 122.228 385.284C122.327 385.954 122.427 386.635 122.526 387.33C123.703 395.58 125.354 409.62 126.94 423.794V423.799C128.194 434.971 131.052 446.435 131.96 454.989C131.96 454.995 131.962 455.001 131.962 455.006C132.142 456.683 132.571 458.917 133.15 461.438C133.214 461.723 133.282 462.011 133.35 462.304C135.906 473.102 140.868 488.387 140.868 488.387L142.313 487.052L146.594 483.101C147.579 482.192 147.953 480.799 147.555 479.521C145.182 471.863 137.114 444.762 135.635 425.706C135.634 425.701 135.634 425.695 135.634 425.689C136.36 418.994 138.213 410.01 137.936 408.718C137.954 408.764 137.97 408.81 137.987 408.857C138.836 411.22 139.777 413.788 140.726 416.289V416.291C143.273 423.005 145.878 429.227 146.963 429.624C149.377 430.512 192.739 443.305 193.053 441.52C193.085 441.34 193.121 441.149 193.163 440.947C193.202 440.748 193.246 440.538 193.292 440.319C193.827 437.876 194.8 434.372 195.478 432.005C195.579 431.656 195.673 431.331 195.758 431.038C196.043 430.058 196.228 429.437 196.228 429.437L159.559 417.401L141.057 369.016C140.693 368.728 135.971 366.186 132.846 364.699C129.591 363.149 125.473 361.237 121.819 359.551C120.075 358.744 118.431 357.99 117.043 357.352L116.929 357.442Z" fill="#3C4145"/>
<path d="M92.1017 374.216L99.1523 378.192L96.14 381.264L104.161 424.571C105.796 414.42 106.541 404.78 107.094 398.869C108.939 379.194 89.3003 356.999 88.0786 355.64C87.1354 355.997 86.1164 356.393 85.0635 356.809L92.1017 374.216Z" fill="#51565C"/>
<path d="M116.82 357.251C116.82 357.251 119.454 365.855 122.525 387.33C123.702 395.58 125.354 409.621 126.941 423.793L128.582 383.235L125.223 379.597L128.209 375.865L121.82 359.551C120.075 358.744 118.432 357.989 117.042 357.352L116.82 357.251Z" fill="#51565C"/>
<path d="M87.6852 355.789L93.5706 352.176C93.5706 352.176 93.7345 355.382 108.212 363.756L104.1 375.336L87.6852 355.789Z" fill="#F5E2D9"/>
<path d="M112.062 353.792C112.062 353.792 111.835 357.252 108.211 363.756L116.235 374.216L116.82 357.252L112.062 353.792Z" fill="#F5E2D9"/>
<path d="M108.19 363.756C108.19 363.756 106.635 369.976 107.194 371.718C107.194 371.718 110.614 372.962 113.072 371.407C113.072 371.407 111.331 367.053 108.19 363.756Z" fill="#0010F7"/>
<path d="M116.228 453.464C117.099 449.075 116.27 435.924 116.235 435.367L115.49 435.414C115.498 435.55 116.348 449.025 115.497 453.318L116.228 453.464Z" fill="#AD9F99"/>
<path d="M110.14 451.44C110.14 451.44 117.158 452.279 119.478 452.857L119.174 460.723L109.984 459.743L110.14 451.44Z" fill="#69737A"/>
<path d="M111.675 370.847C111.675 370.847 119.502 390.613 118.226 412.736C116.902 435.675 114.731 443.992 114.731 443.992L109.905 450.045L107.777 442.606C107.777 442.606 114.253 413.361 110.072 384.904C109.315 379.747 108.19 369.976 108.19 369.976L111.675 370.847Z" fill="#0010F7"/>
<path d="M88.1565 464.192C88.1565 464.192 89.8359 467.551 91.5157 468.111C93.1947 468.671 95.6442 471.4 95.6442 471.4L83.8181 477.628C83.8181 477.628 80.6695 471.47 80.5291 467.551C80.3891 463.632 88.1565 464.192 88.1565 464.192Z" fill="#EEA886"/>
<path d="M89.2792 464.508L90.0627 466.082C90.0627 466.082 82.5518 471.575 80.5277 471.925L79.8323 469.826L89.2792 464.508Z" fill="#DECBC4"/>
<path d="M90.0623 464.576C90.0623 464.576 84.4338 469.231 79.6916 471.377L58.4435 434.119L72.0054 426.704C72.0054 426.704 89.6889 461.777 90.0623 464.576Z" fill="#3C4145"/>
<path d="M137.713 398.691C137.974 404 137.936 408.713 137.936 408.713C137.936 408.713 137.936 408.715 137.936 408.717C137.937 408.743 137.943 408.886 137.954 409.124C137.965 409.034 137.976 408.945 137.987 408.857C138.837 411.22 139.778 413.788 140.727 416.289C140.948 413.391 141.004 410.69 140.94 408.189C140.559 393.306 135.878 385.501 135.878 385.501C136.952 388.095 137.466 393.661 137.713 398.691Z" fill="#2D3133"/>
<path d="M322.349 349.626C322.349 349.626 322.127 346.891 322.449 345.614C323.005 343.41 322.186 339.839 324.958 338.108C327.731 336.376 335.702 343.629 336.329 345.655C336.956 347.681 333.975 351.135 327.743 354.036C321.511 356.937 322.349 349.626 322.349 349.626Z" fill="#EEA886"/>
<path d="M324.11 338.826C324.11 338.826 326.801 334.777 330.353 330.639C333.47 327.01 337.845 322.939 338.768 323.712C340.17 324.885 336.201 327.812 333.355 331.619C330.736 335.124 331.847 334.876 331.847 334.876C331.847 334.876 331.527 334.929 335.133 331.669C339.011 328.164 343.324 324.561 344.092 325.18C345.043 325.947 345.097 326.123 343.901 327.627C344.777 326.911 345.1 327.051 345.437 327.39C347.183 329.143 342.299 335.187 340.358 337.586C341.86 335.752 343.161 334.568 343.536 336.332C343.965 338.349 336.669 346.58 334.342 349.78C331.805 353.272 324.11 338.826 324.11 338.826Z" fill="#EEA886"/>
<path d="M230.876 629.626C230.876 629.626 238.462 634.111 241.896 635.778C245.33 637.444 258.675 637.922 259.994 639.175C261.312 640.428 260.829 644.417 258.617 644.824C256.406 645.231 240.187 646.698 234.775 645.433C229.363 644.167 219.242 646.297 217 645.536C214.759 644.774 216.205 632.691 217.071 629.979C217.937 627.267 230.876 629.626 230.876 629.626Z" fill="#181929"/>
<path d="M231.508 624.687L230.876 629.627C230.876 629.627 220.736 631.523 217.663 629.961L218.424 624.828L231.508 624.687Z" fill="#22243B"/>
<path d="M272.19 455.927C272.082 459.349 271.459 466.772 270.733 474.567C270.571 476.299 270.401 478.051 270.234 479.78C269.222 490.271 268.201 499.974 268.201 499.974C266.92 508.324 264.278 522.823 261.325 533.784V533.787C260.472 536.95 259.596 539.819 258.717 542.16C257.861 544.439 257.002 546.22 256.169 547.285C249.885 555.313 235.476 626.481 235.476 626.481L215.807 626.33C215.807 626.33 220.133 578.139 224.481 565.925C229.331 552.282 237.758 533.898 235.666 520.739C234.357 512.482 232.667 486.2 232.667 486.2C232.667 486.2 231.023 456.667 238.748 435.036C240.675 429.631 272.19 455.927 272.19 455.927Z" fill="#292C47"/>
<path d="M286.149 631.475C286.149 631.475 293.68 636.05 297.094 637.758C300.508 639.466 313.846 640.104 315.149 641.372C316.453 642.641 315.922 646.624 313.705 647.004C311.489 647.385 295.254 648.657 289.857 647.327C284.46 645.997 274.315 648.005 272.083 647.217C269.85 646.428 271.441 634.363 272.34 631.662C273.239 628.961 286.149 631.475 286.149 631.475Z" fill="#181929"/>
<path d="M286.84 626.543L286.149 631.475C286.149 631.475 275.987 633.25 272.932 631.651L273.755 626.527L286.84 626.543Z" fill="#22243B"/>
<path d="M263.329 555.971C262.817 540.231 261.427 529.773 257.376 520.68C253.975 513.044 251.064 489.062 251.064 489.062C251.064 489.062 241.846 460.961 243.714 438.066C244.182 432.348 279.812 446.722 279.812 446.722C280.592 450.056 282.975 460.546 283.82 468.327C288.645 512.782 286.839 541.743 286.839 541.743C284.084 551.559 291.045 628.79 291.045 628.79H270.991C270.991 628.79 265.733 601.315 265.18 584.229C265.181 584.229 263.131 558.692 263.329 555.971Z" fill="#292C47"/>
<path d="M262.881 352.298C262.881 352.298 272.225 367.617 274.957 376.164C277.689 384.712 275.488 409.565 275.971 414.56C277.466 430.058 279.648 447.119 279.648 447.119L248.324 467.127C248.324 467.127 242.703 453.995 237.8 437.643C232.897 421.291 232.503 406.569 232.548 396.732C232.692 365.876 249.371 348.453 249.371 348.453L262.881 352.298Z" fill="#CFBEB6"/>
<path d="M274.394 311.21C274.394 311.21 280.816 318.084 279.002 319.892C277.503 321.385 283.408 328.236 284.248 329.387C285.088 330.54 281.626 332.446 281.056 333.479C280.486 334.512 280.821 345.293 277.849 346.402C274.877 347.51 259.865 346.338 255.097 343.427C250.328 340.516 242.636 323.732 243.188 315.655C243.74 307.579 263.097 299.223 274.394 311.21Z" fill="#EEA886"/>
<path d="M268.319 344.073C268.319 344.073 268.209 344.989 268.063 346.409C268.008 347.005 267.935 347.682 267.87 348.425C267.834 348.864 267.797 349.331 267.751 349.808C267.742 349.936 267.724 350.064 267.715 350.193C267.696 350.412 267.678 350.632 267.66 350.861C267.586 351.896 267.513 352.968 267.458 354.031C267.321 356.77 267.302 359.39 267.595 360.847C268.383 364.841 251.178 347.985 251.178 347.985C251.178 347.985 252.635 334.912 251.93 320.217C251.215 305.523 268.319 344.073 268.319 344.073Z" fill="#EEA886"/>
<path d="M275.712 312.72C275.712 312.72 278.749 305.552 269.379 300.576C258.348 294.718 246.652 309.426 245.1 310.292C243.548 311.158 236.495 319.095 243.397 329.616C252.106 342.892 251.647 342.447 251.647 342.447C251.647 342.447 252.52 332.654 252.463 330.764C252.359 327.31 261.419 326.9 261.419 326.9C261.419 326.9 257.698 321.948 261.834 319.726C265.971 317.505 270.809 312.234 275.712 312.72Z" fill="#3A3F47"/>
<path d="M256.662 325.647C256.002 324.72 253.582 320.629 250.47 324.222C247.357 327.815 255.704 334.532 256.394 334.465C257.084 334.4 262.212 333.444 256.662 325.647Z" fill="#EEA886"/>
<path d="M281.357 453.721C281.357 453.721 279.799 446.393 279.498 445.297L233.689 452.919L234.158 458.841C234.158 458.841 267.163 456.864 281.357 453.721Z" fill="#23263D"/>
<path d="M229.612 421.437C229.612 421.437 236.649 451.829 225.628 487.283C224.282 491.611 256.135 486.609 256.135 486.609L229.612 421.437Z" fill="#0010F7"/>
<path d="M270.075 484.384C270.075 484.384 247.45 489.35 241.095 487.105C241.095 487.105 231.848 453.467 228.623 419.325C228.373 416.685 228.161 414.047 227.991 411.422C227.991 411.416 227.991 411.416 227.991 411.416C226.191 383.64 233.26 355.462 249.369 348.455C249.823 348.761 272.51 368.764 272.08 387.073C272.049 388.312 272.032 389.556 272.023 390.8C272.009 393.051 272.026 395.307 272.074 397.558L272.077 397.561C272.221 404.526 272.652 411.473 273.267 418.219C273.33 418.922 273.398 419.625 273.466 420.322C273.576 421.456 273.692 422.582 273.811 423.701C273.973 425.192 274.14 426.669 274.316 428.134C277.978 458.691 270.075 484.384 270.075 484.384Z" fill="#0010F7"/>
<path d="M269.145 365.676C269.145 365.676 273.408 382.55 275.032 403.781C276.392 421.544 278.207 434.105 278.207 434.105L280.927 442.899L282.045 434.419C282.045 434.419 281.047 411.494 279.717 402.168C278.376 392.766 277.79 380.829 270.273 365.346L269.145 365.676Z" fill="#D44040"/>
<path d="M268.67 365.689C268.67 365.689 269.183 366.181 269.91 366.289C270.637 366.397 271.677 365.235 267.962 360.329L268.67 365.689Z" fill="#D44040"/>
<path d="M251.379 345.917C251.379 345.917 261.914 355.839 268.183 358.028L269.379 367.532L249.371 348.453L251.379 345.917Z" fill="#EDDAD3"/>
<path d="M258.451 384.329C254.299 382.853 237.04 374.476 241.631 364.696C246.221 354.916 258.054 360.118 266.961 364.097C276.28 368.26 298.28 381.051 300.021 379.86C301.762 378.668 309.372 367.778 310.747 365.351C312.123 362.924 320.428 347.413 321.211 346.244C321.976 345.101 334.041 355.234 334.041 355.234C334.041 355.234 312.376 393.71 306.546 399.836C300.717 405.962 258.451 384.329 258.451 384.329Z" fill="#0010F7"/>
<path d="M261.325 533.784V533.787C260.472 536.95 259.596 539.819 258.717 542.161C258.714 542.158 258.714 542.158 258.714 542.158L251.854 501.236C253.589 505.116 261.325 533.784 261.325 533.784Z" fill="#181929"/>
<path d="M272.074 397.558L252.223 381.344C257.481 384.161 270.404 390.063 272.023 390.8C272.008 393.05 272.025 395.307 272.074 397.558Z" fill="#8F5C28"/>
<path d="M268.063 346.409C268.008 347.005 267.935 347.682 267.87 348.425C267.834 348.864 267.797 349.331 267.751 349.808C261.174 349.368 256.089 344.128 255.778 343.807C258.453 345.932 268.063 346.409 268.063 346.409Z" fill="#A77860"/>
<path d="M190.479 387.856H209.187L203.461 375.979H184.752L190.479 387.856Z" fill="url(#paint4_linear_45_835)"/>
<path d="M181.725 387.856H186.183L180.456 375.979H175.999L181.725 387.856Z" fill="url(#paint5_linear_45_835)"/>
<defs>
<linearGradient id="paint0_linear_45_835" x1="204.883" y1="498.956" x2="190.641" y2="240.816" gradientUnits="userSpaceOnUse">
<stop stop-color="#D1D7E0"/>
<stop offset="1" stop-color="#EBEBFF"/>
</linearGradient>
<linearGradient id="paint1_linear_45_835" x1="437.856" y1="570.922" x2="437.856" y2="305.163" gradientUnits="userSpaceOnUse">
<stop stop-color="#D1D7E0"/>
<stop offset="1" stop-color="#EBEBFF"/>
</linearGradient>
<linearGradient id="paint2_linear_45_835" x1="191.856" y1="406.81" x2="191.856" y2="212.485" gradientUnits="userSpaceOnUse">
<stop stop-color="#D1D7E0"/>
<stop offset="1" stop-color="#EBEBFF"/>
</linearGradient>
<linearGradient id="paint3_linear_45_835" x1="367.961" y1="242.524" x2="367.961" y2="133.058" gradientUnits="userSpaceOnUse">
<stop stop-color="#D1D7E0"/>
<stop offset="1" stop-color="#EBEBFF"/>
</linearGradient>
<linearGradient id="paint4_linear_45_835" x1="184.752" y1="381.917" x2="209.187" y2="381.917" gradientUnits="userSpaceOnUse">
<stop stop-color="#D1D7E0"/>
<stop offset="1" stop-color="#EBEBFF"/>
</linearGradient>
<linearGradient id="paint5_linear_45_835" x1="175.998" y1="381.917" x2="186.182" y2="381.917" gradientUnits="userSpaceOnUse">
<stop stop-color="#D1D7E0"/>
<stop offset="1" stop-color="#EBEBFF"/>
</linearGradient>
</defs>
</svg>
