<svg width="226" height="44" viewBox="0 0 226 44" fill="none" xmlns="http://www.w3.org/2000/svg">
<path d="M79.8239 36.2293V8.87529H91.1264C91.3924 8.87529 91.7343 8.88795 92.1522 8.91328C92.5701 8.92594 92.9564 8.96393 93.311 9.02725C94.894 9.26787 96.1983 9.79342 97.2241 10.6039C98.2626 11.4144 99.0287 12.4402 99.5226 13.6812C100.029 14.9096 100.282 16.2773 100.282 17.7843C100.282 19.2787 100.029 20.6464 99.5226 21.8875C99.0161 23.1158 98.2436 24.1353 97.2051 24.9458C96.1793 25.7563 94.8813 26.2818 93.311 26.5224C92.9564 26.5731 92.5638 26.6111 92.1332 26.6364C91.7153 26.6617 91.3797 26.6744 91.1264 26.6744H84.4019V36.2293H79.8239ZM84.4019 22.4003H90.9365C91.1898 22.4003 91.4747 22.3877 91.7913 22.3623C92.1079 22.337 92.3992 22.2864 92.6651 22.2104C93.4249 22.0204 94.0202 21.6848 94.4507 21.2036C94.894 20.7224 95.2042 20.1778 95.3815 19.57C95.5715 18.9621 95.6665 18.3669 95.6665 17.7843C95.6665 17.2018 95.5715 16.6066 95.3815 15.9987C95.2042 15.3782 94.894 14.8273 94.4507 14.3461C94.0202 13.8649 93.4249 13.5293 92.6651 13.3393C92.3992 13.2633 92.1079 13.219 91.7913 13.2063C91.4747 13.181 91.1898 13.1683 90.9365 13.1683H84.4019V22.4003Z" fill="#1E1E1E"/>
<path d="M104.088 36.2293V15.7138H108.134V20.7097L107.64 20.0638C107.894 19.38 108.229 18.7595 108.647 18.2023C109.078 17.6324 109.591 17.1638 110.186 16.7966C110.692 16.4546 111.25 16.1887 111.857 15.9987C112.478 15.7961 113.111 15.6758 113.757 15.6378C114.403 15.5872 115.03 15.6125 115.638 15.7138V19.9879C115.03 19.8106 114.327 19.7536 113.529 19.8169C112.744 19.8802 112.035 20.1018 111.402 20.4818C110.768 20.8237 110.249 21.2606 109.844 21.7925C109.451 22.3244 109.16 22.9322 108.97 23.6161C108.78 24.2873 108.685 25.0154 108.685 25.8006V36.2293H104.088Z" fill="#1E1E1E"/>
<path d="M124.517 36.7992C123.035 36.7992 121.782 36.5206 120.756 35.9634C119.73 35.3935 118.951 34.64 118.419 33.7029C117.9 32.7657 117.641 31.7336 117.641 30.6066C117.641 29.6188 117.805 28.7323 118.134 27.9471C118.464 27.1493 118.97 26.4655 119.654 25.8956C120.338 25.313 121.224 24.8381 122.313 24.4709C123.137 24.2049 124.099 23.9643 125.201 23.749C126.315 23.5338 127.518 23.3375 128.81 23.1602C130.114 22.9702 131.476 22.7676 132.894 22.5523L131.261 23.4831C131.273 22.0647 130.957 21.02 130.311 20.3488C129.665 19.6776 128.576 19.342 127.043 19.342C126.119 19.342 125.226 19.5573 124.365 19.9879C123.504 20.4184 122.902 21.1593 122.56 22.2104L118.381 20.8997C118.888 19.1647 119.85 17.7717 121.269 16.7206C122.7 15.6695 124.625 15.1439 127.043 15.1439C128.867 15.1439 130.469 15.4415 131.849 16.0367C133.242 16.6319 134.275 17.607 134.946 18.9621C135.313 19.6839 135.535 20.4248 135.611 21.1846C135.687 21.9318 135.725 22.7486 135.725 23.6351V36.2293H131.716V31.7843L132.381 32.5061C131.457 33.9878 130.374 35.0769 129.133 35.7734C127.905 36.4573 126.366 36.7992 124.517 36.7992ZM125.429 33.152C126.467 33.152 127.354 32.9684 128.088 32.6011C128.823 32.2339 129.405 31.7843 129.836 31.2524C130.279 30.7205 130.577 30.2203 130.729 29.7517C130.969 29.1692 131.102 28.5043 131.128 27.7572C131.166 26.9973 131.185 26.3831 131.185 25.9146L132.59 26.3325C131.21 26.5478 130.026 26.7377 129.038 26.9024C128.05 27.067 127.202 27.2253 126.493 27.3773C125.783 27.5166 125.157 27.6749 124.612 27.8521C124.08 28.0421 123.631 28.2637 123.263 28.517C122.896 28.7703 122.611 29.0616 122.408 29.3908C122.219 29.7201 122.124 30.1063 122.124 30.5496C122.124 31.0561 122.25 31.5057 122.503 31.8983C122.757 32.2782 123.124 32.5821 123.605 32.8101C124.099 33.038 124.707 33.152 125.429 33.152Z" fill="#1E1E1E"/>
<path d="M140.632 36.2293L140.67 8.87529H145.305V25.5916L152.808 15.7138H158.526L150.567 25.9716L159.21 36.2293H153.15L145.305 26.3515V36.2293H140.632Z" fill="#1E1E1E"/>
<path d="M173.137 36.2293C171.782 36.4826 170.452 36.5902 169.148 36.5523C167.856 36.5269 166.698 36.2926 165.672 35.8494C164.646 35.3935 163.867 34.678 163.335 33.7029C162.867 32.8164 162.62 31.9109 162.595 30.9865C162.569 30.062 162.557 29.0172 162.557 27.8521V10.015H167.116V27.5862C167.116 28.4094 167.122 29.1312 167.135 29.7517C167.16 30.3723 167.293 30.8788 167.533 31.2714C167.989 32.0312 168.718 32.4555 169.718 32.5441C170.718 32.6328 171.858 32.5821 173.137 32.3922V36.2293ZM158.833 19.304V15.7138H173.137V19.304H158.833Z" fill="#1E1E1E"/>
<path d="M177.929 12.5985V8.40039H182.507V12.5985H177.929ZM177.929 36.2293V15.7138H182.507V36.2293H177.929Z" fill="#1E1E1E"/>
<path d="M188.159 36.2293L188.197 8.87529H192.832V25.5916L200.335 15.7138H206.053L198.094 25.9716L206.737 36.2293H200.677L192.832 26.3515V36.2293H188.159Z" fill="#1E1E1E"/>
<path d="M214.376 36.7992C212.895 36.7992 211.641 36.5206 210.615 35.9634C209.589 35.3935 208.811 34.64 208.279 33.7029C207.759 32.7657 207.5 31.7336 207.5 30.6066C207.5 29.6188 207.664 28.7323 207.994 27.9471C208.323 27.1493 208.83 26.4655 209.513 25.8956C210.197 25.313 211.084 24.8381 212.173 24.4709C212.996 24.2049 213.958 23.9643 215.06 23.749C216.175 23.5338 217.378 23.3375 218.669 23.1602C219.974 22.9702 221.335 22.7676 222.754 22.5523L221.12 23.4831C221.133 22.0647 220.816 21.02 220.17 20.3488C219.524 19.6776 218.435 19.342 216.903 19.342C215.978 19.342 215.086 19.5573 214.224 19.9879C213.363 20.4184 212.762 21.1593 212.42 22.2104L208.241 20.8997C208.747 19.1647 209.71 17.7717 211.128 16.7206C212.559 15.6695 214.484 15.1439 216.903 15.1439C218.726 15.1439 220.328 15.4415 221.709 16.0367C223.102 16.6319 224.134 17.607 224.805 18.9621C225.172 19.6839 225.394 20.4248 225.47 21.1846C225.546 21.9318 225.584 22.7486 225.584 23.6351V36.2293H221.576V31.7843L222.241 32.5061C221.316 33.9878 220.233 35.0769 218.992 35.7734C217.764 36.4573 216.225 36.7992 214.376 36.7992ZM215.288 33.152C216.327 33.152 217.213 32.9684 217.948 32.6011C218.682 32.2339 219.265 31.7843 219.695 31.2524C220.138 30.7205 220.436 30.2203 220.588 29.7517C220.829 29.1692 220.962 28.5043 220.987 27.7572C221.025 26.9973 221.044 26.3831 221.044 25.9146L222.45 26.3325C221.069 26.5478 219.885 26.7377 218.897 26.9024C217.91 27.067 217.061 27.2253 216.352 27.3773C215.643 27.5166 215.016 27.6749 214.471 27.8521C213.939 28.0421 213.49 28.2637 213.123 28.517C212.755 28.7703 212.47 29.0616 212.268 29.3908C212.078 29.7201 211.983 30.1063 211.983 30.5496C211.983 31.0561 212.109 31.5057 212.363 31.8983C212.616 32.2782 212.983 32.5821 213.465 32.8101C213.958 33.038 214.566 33.152 215.288 33.152Z" fill="#1E1E1E"/>
<mask id="path-2-outside-1_5_324" maskUnits="userSpaceOnUse" x="0.181091" y="1.37158" width="64" height="43" fill="black">
<rect fill="white" x="0.181091" y="1.37158" width="64" height="43"/>
<path d="M63.0219 17.26L55.0481 3.67302C54.693 3.06693 54.1223 2.63548 53.4422 2.45862C52.7615 2.28174 52.0531 2.37911 51.4462 2.7342L46.0643 5.88392C45.0456 6.48064 44.5894 7.65882 44.8456 8.7518C40.5443 7.02549 35.9939 7.0327 32.1169 8.77279C29.0137 7.18861 24.6895 7.2069 19.7041 8.81254C19.993 7.70309 19.5373 6.49133 18.4993 5.8835L13.1179 2.73377C12.5111 2.37824 11.8032 2.28043 11.122 2.45819C10.4417 2.6355 9.87152 3.06651 9.51604 3.67259L1.54345 17.2603C1.18791 17.8664 1.08998 18.5739 1.26751 19.2537C1.44506 19.9331 1.87662 20.5025 2.48349 20.8576L7.86533 24.0073C8.27453 24.2467 8.72981 24.3691 9.19133 24.3691C9.41449 24.3691 9.639 24.3405 9.86037 24.2829C10.541 24.1056 11.1113 23.6746 11.4668 23.0685L11.7328 22.6156C12.511 23.2842 13.7789 24.5057 14.7865 26.0877L12.9851 28.1494C12.4162 28.8002 12.1354 29.6335 12.1944 30.4957C12.2535 31.3572 12.6448 32.1451 13.2959 32.7128C13.8912 33.2314 14.6385 33.5105 15.4203 33.5105C15.4949 33.5105 15.5701 33.5079 15.6448 33.5029C15.8044 33.4922 15.9583 33.4583 16.1116 33.4252C16.0996 33.5816 16.0871 33.7383 16.0978 33.8978C16.1564 34.7598 16.5477 35.5472 17.1993 36.1154C17.812 36.6496 18.5705 36.9109 19.3262 36.9109C19.5579 36.9109 19.7887 36.8845 20.015 36.8358C20.0038 36.9895 19.9904 37.1431 20.0011 37.2994C20.0601 38.1615 20.4514 38.9489 21.1026 39.5171C21.6978 40.0356 22.4447 40.3148 23.2269 40.3148C23.3016 40.3148 23.3767 40.3121 23.4519 40.3072C23.6115 40.2965 23.7654 40.2625 23.9192 40.2295C23.8427 41.2143 24.2059 42.2215 25.0064 42.9191C25.6016 43.4376 26.3485 43.7168 27.1307 43.7168C27.2049 43.7168 27.2801 43.7141 27.3552 43.7092C28.2183 43.6502 29.0068 43.2594 29.5752 42.6087L29.6678 42.5028C30.5046 42.9245 31.3851 43.1536 32.2567 43.1536C32.4973 43.1536 32.7375 43.1366 32.9754 43.1022C34.2155 42.9244 35.2919 42.2902 35.9999 41.3375C36.2897 41.4224 36.5885 41.4795 36.8975 41.4795C36.9436 41.4795 36.9901 41.4786 37.0366 41.4768C37.8921 41.4407 38.6819 41.0731 39.2597 40.4415C39.7968 39.8546 40.0728 39.11 40.0808 38.3258C40.5477 38.5755 41.0656 38.7103 41.5996 38.7103C41.7136 38.7103 41.8286 38.7045 41.9435 38.6929C42.8071 38.6027 43.5839 38.1815 44.13 37.5076C44.7744 36.7116 44.9645 35.7004 44.7588 34.7683C44.9229 34.7911 45.0875 34.8098 45.2538 34.8098C45.4631 34.8098 45.6738 34.7915 45.8831 34.754C46.896 34.574 47.7855 33.9679 48.3227 33.0916C48.9153 32.1247 49.0047 30.9857 48.6407 29.9879C50.0454 28.7377 50.9492 26.8252 51.391 24.1919C51.5788 23.4169 52.0051 22.8997 52.7766 22.5196L53.0994 23.0699C53.4545 23.676 54.0252 24.1074 54.7058 24.2843C54.9272 24.3419 55.1517 24.3705 55.3749 24.3705C55.8368 24.3705 56.2925 24.2481 56.7013 24.0087L62.0822 20.859C62.6891 20.5044 63.1211 19.9345 63.2982 19.2551C63.4767 18.5745 63.3775 17.8661 63.0219 17.26ZM15.5564 32.2112C15.0448 32.2496 14.539 32.0785 14.1476 31.7377C13.3404 31.0343 13.2568 29.8064 13.9612 29.0003L15.4558 27.2897C15.4965 27.3745 15.5403 27.4576 15.5792 27.5443C15.9187 28.3067 16.6932 29.3854 17.7062 30.6162L16.8891 31.5515C16.5474 31.9414 16.0743 32.1759 15.5564 32.2112ZM18.051 35.1393C17.6601 34.7985 17.4253 34.3264 17.39 33.8092C17.3551 33.2924 17.5233 32.7926 17.8645 32.4018L21.1126 28.6843C21.4959 28.2453 22.0357 28.0206 22.5773 28.0206C23.0303 28.0206 23.4856 28.1778 23.8528 28.4981C24.2437 28.8389 24.4784 29.311 24.5138 29.8282C24.5491 30.345 24.3805 30.8448 24.0397 31.2352L20.7916 34.953C20.0877 35.7588 18.8587 35.8423 18.051 35.1393ZM23.3639 39.0148C22.8469 39.0501 22.3456 38.8817 21.9551 38.5414C21.5643 38.2006 21.3295 37.7285 21.2942 37.2113C21.2588 36.6945 21.4274 36.1947 21.7682 35.8039L25.0163 32.0865C25.3996 31.6474 25.9394 31.4227 26.481 31.4227C26.934 31.4227 27.3893 31.58 27.7565 31.9002C28.5637 32.6037 28.6469 33.8315 27.943 34.6376L26.4511 36.3452L24.6953 38.3546C24.3541 38.745 23.8814 38.9796 23.3639 39.0148ZM27.2673 42.4165C26.7445 42.4504 26.249 42.2834 25.8585 41.943C25.0513 41.2396 24.9681 40.0117 25.672 39.2056L27.4273 37.1967C27.811 36.7576 28.3504 36.5329 28.8924 36.5329C29.3455 36.5329 29.8003 36.6902 30.1679 37.01C30.9752 37.7134 31.0588 38.9417 30.3544 39.7474L28.5991 41.7563C28.2579 42.1471 27.7847 42.3816 27.2673 42.4165ZM47.2168 32.4143C46.8733 32.9753 46.304 33.363 45.656 33.4782C45.0075 33.593 44.3393 33.4251 43.8228 33.0169L41.1497 30.9034L38.182 28.4768C37.9051 28.2507 37.4964 28.2905 37.2701 28.5679C37.0433 28.8443 37.084 29.2521 37.3613 29.4786L40.3312 31.9069L40.3389 31.9132L42.841 33.9593C43.6683 34.636 43.794 35.8616 43.1214 36.6922C42.7931 37.0973 42.3267 37.3501 41.8074 37.4046C41.2882 37.4573 40.7793 37.3077 40.3745 36.979L36.8965 34.1571L35.6711 33.1535C35.3947 32.927 34.9864 32.9677 34.7588 33.2437C34.532 33.5202 34.5723 33.928 34.8491 34.1549L38.1044 36.8208C38.5119 37.1544 38.7569 37.627 38.7949 38.1518C38.833 38.6766 38.6581 39.1796 38.3026 39.5682C37.9591 39.9438 37.4895 40.1617 36.9806 40.1832C36.4792 40.2113 35.9855 40.0273 35.6116 39.6821L33.8666 38.0733C33.6036 37.8308 33.194 37.8482 32.9512 38.1099C32.7083 38.3725 32.7249 38.7821 32.9878 39.0242L34.7328 40.633C34.765 40.6629 34.8031 40.6839 34.8366 40.712C34.3348 41.3047 33.6166 41.7027 32.791 41.821C32.0572 41.926 31.2902 41.8072 30.5501 41.4923L31.33 40.5995C31.8989 39.9487 32.1797 39.1153 32.1207 38.2532C32.0617 37.3912 31.6703 36.6037 31.0192 36.0356C30.4579 35.5465 29.7741 35.2991 29.0823 35.2584C30.0595 33.9198 29.881 32.0346 28.6082 30.9252C27.8073 30.2275 26.759 30.0051 25.7925 30.2141C25.8046 30.0573 25.8171 29.9006 25.8064 29.7407C25.7474 28.8791 25.356 28.0912 24.7049 27.5235C23.3592 26.351 21.3101 26.4904 20.1357 27.8344L18.5695 29.6268C17.6795 28.5374 17.0342 27.6307 16.7618 27.0192C15.5665 24.3322 13.4452 22.3505 12.3974 21.4808L18.8552 10.4761C23.5613 8.73911 27.6539 8.42376 30.6429 9.54212C30.5655 9.58813 30.485 9.62833 30.4086 9.67612C26.5066 12.0934 24.3161 16.0314 24.398 20.4808C24.4181 21.567 24.8443 22.589 25.5987 23.358C26.0307 23.7984 26.6085 24.041 27.2262 24.041H27.2302C27.8491 24.0396 28.4278 23.7953 28.859 23.3523L32.4215 19.696C33.1558 18.943 34.3575 18.888 35.1575 19.5705L46.7483 29.4654C47.6146 30.2032 47.8116 31.4443 47.2168 32.4143ZM52.0762 21.4159C51.2887 21.8286 50.4577 22.5418 50.1219 23.9304C49.7431 26.177 49.0347 27.792 47.9628 28.847C47.8492 28.718 47.7253 28.5956 47.5911 28.4812L36.0004 18.5864C35.3823 18.0593 34.6202 17.7989 33.8591 17.7989C32.9964 17.7989 32.136 18.1339 31.4933 18.7932L27.9308 22.4494C27.7448 22.6406 27.4952 22.746 27.2287 22.7464C26.9738 22.7652 26.7117 22.6419 26.5252 22.4521C26.0033 21.9202 25.7082 21.2113 25.6943 20.4565C25.6205 16.4747 27.5883 12.9458 31.0922 10.7756C35.3399 8.14485 40.8156 8.07922 45.7741 10.5858L49.304 16.6006L52.0762 21.4159Z"/>
</mask>
<path d="M63.0219 17.26L55.0481 3.67302C54.693 3.06693 54.1223 2.63548 53.4422 2.45862C52.7615 2.28174 52.0531 2.37911 51.4462 2.7342L46.0643 5.88392C45.0456 6.48064 44.5894 7.65882 44.8456 8.7518C40.5443 7.02549 35.9939 7.0327 32.1169 8.77279C29.0137 7.18861 24.6895 7.2069 19.7041 8.81254C19.993 7.70309 19.5373 6.49133 18.4993 5.8835L13.1179 2.73377C12.5111 2.37824 11.8032 2.28043 11.122 2.45819C10.4417 2.6355 9.87152 3.06651 9.51604 3.67259L1.54345 17.2603C1.18791 17.8664 1.08998 18.5739 1.26751 19.2537C1.44506 19.9331 1.87662 20.5025 2.48349 20.8576L7.86533 24.0073C8.27453 24.2467 8.72981 24.3691 9.19133 24.3691C9.41449 24.3691 9.639 24.3405 9.86037 24.2829C10.541 24.1056 11.1113 23.6746 11.4668 23.0685L11.7328 22.6156C12.511 23.2842 13.7789 24.5057 14.7865 26.0877L12.9851 28.1494C12.4162 28.8002 12.1354 29.6335 12.1944 30.4957C12.2535 31.3572 12.6448 32.1451 13.2959 32.7128C13.8912 33.2314 14.6385 33.5105 15.4203 33.5105C15.4949 33.5105 15.5701 33.5079 15.6448 33.5029C15.8044 33.4922 15.9583 33.4583 16.1116 33.4252C16.0996 33.5816 16.0871 33.7383 16.0978 33.8978C16.1564 34.7598 16.5477 35.5472 17.1993 36.1154C17.812 36.6496 18.5705 36.9109 19.3262 36.9109C19.5579 36.9109 19.7887 36.8845 20.015 36.8358C20.0038 36.9895 19.9904 37.1431 20.0011 37.2994C20.0601 38.1615 20.4514 38.9489 21.1026 39.5171C21.6978 40.0356 22.4447 40.3148 23.2269 40.3148C23.3016 40.3148 23.3767 40.3121 23.4519 40.3072C23.6115 40.2965 23.7654 40.2625 23.9192 40.2295C23.8427 41.2143 24.2059 42.2215 25.0064 42.9191C25.6016 43.4376 26.3485 43.7168 27.1307 43.7168C27.2049 43.7168 27.2801 43.7141 27.3552 43.7092C28.2183 43.6502 29.0068 43.2594 29.5752 42.6087L29.6678 42.5028C30.5046 42.9245 31.3851 43.1536 32.2567 43.1536C32.4973 43.1536 32.7375 43.1366 32.9754 43.1022C34.2155 42.9244 35.2919 42.2902 35.9999 41.3375C36.2897 41.4224 36.5885 41.4795 36.8975 41.4795C36.9436 41.4795 36.9901 41.4786 37.0366 41.4768C37.8921 41.4407 38.6819 41.0731 39.2597 40.4415C39.7968 39.8546 40.0728 39.11 40.0808 38.3258C40.5477 38.5755 41.0656 38.7103 41.5996 38.7103C41.7136 38.7103 41.8286 38.7045 41.9435 38.6929C42.8071 38.6027 43.5839 38.1815 44.13 37.5076C44.7744 36.7116 44.9645 35.7004 44.7588 34.7683C44.9229 34.7911 45.0875 34.8098 45.2538 34.8098C45.4631 34.8098 45.6738 34.7915 45.8831 34.754C46.896 34.574 47.7855 33.9679 48.3227 33.0916C48.9153 32.1247 49.0047 30.9857 48.6407 29.9879C50.0454 28.7377 50.9492 26.8252 51.391 24.1919C51.5788 23.4169 52.0051 22.8997 52.7766 22.5196L53.0994 23.0699C53.4545 23.676 54.0252 24.1074 54.7058 24.2843C54.9272 24.3419 55.1517 24.3705 55.3749 24.3705C55.8368 24.3705 56.2925 24.2481 56.7013 24.0087L62.0822 20.859C62.6891 20.5044 63.1211 19.9345 63.2982 19.2551C63.4767 18.5745 63.3775 17.8661 63.0219 17.26ZM15.5564 32.2112C15.0448 32.2496 14.539 32.0785 14.1476 31.7377C13.3404 31.0343 13.2568 29.8064 13.9612 29.0003L15.4558 27.2897C15.4965 27.3745 15.5403 27.4576 15.5792 27.5443C15.9187 28.3067 16.6932 29.3854 17.7062 30.6162L16.8891 31.5515C16.5474 31.9414 16.0743 32.1759 15.5564 32.2112ZM18.051 35.1393C17.6601 34.7985 17.4253 34.3264 17.39 33.8092C17.3551 33.2924 17.5233 32.7926 17.8645 32.4018L21.1126 28.6843C21.4959 28.2453 22.0357 28.0206 22.5773 28.0206C23.0303 28.0206 23.4856 28.1778 23.8528 28.4981C24.2437 28.8389 24.4784 29.311 24.5138 29.8282C24.5491 30.345 24.3805 30.8448 24.0397 31.2352L20.7916 34.953C20.0877 35.7588 18.8587 35.8423 18.051 35.1393ZM23.3639 39.0148C22.8469 39.0501 22.3456 38.8817 21.9551 38.5414C21.5643 38.2006 21.3295 37.7285 21.2942 37.2113C21.2588 36.6945 21.4274 36.1947 21.7682 35.8039L25.0163 32.0865C25.3996 31.6474 25.9394 31.4227 26.481 31.4227C26.934 31.4227 27.3893 31.58 27.7565 31.9002C28.5637 32.6037 28.6469 33.8315 27.943 34.6376L26.4511 36.3452L24.6953 38.3546C24.3541 38.745 23.8814 38.9796 23.3639 39.0148ZM27.2673 42.4165C26.7445 42.4504 26.249 42.2834 25.8585 41.943C25.0513 41.2396 24.9681 40.0117 25.672 39.2056L27.4273 37.1967C27.811 36.7576 28.3504 36.5329 28.8924 36.5329C29.3455 36.5329 29.8003 36.6902 30.1679 37.01C30.9752 37.7134 31.0588 38.9417 30.3544 39.7474L28.5991 41.7563C28.2579 42.1471 27.7847 42.3816 27.2673 42.4165ZM47.2168 32.4143C46.8733 32.9753 46.304 33.363 45.656 33.4782C45.0075 33.593 44.3393 33.4251 43.8228 33.0169L41.1497 30.9034L38.182 28.4768C37.9051 28.2507 37.4964 28.2905 37.2701 28.5679C37.0433 28.8443 37.084 29.2521 37.3613 29.4786L40.3312 31.9069L40.3389 31.9132L42.841 33.9593C43.6683 34.636 43.794 35.8616 43.1214 36.6922C42.7931 37.0973 42.3267 37.3501 41.8074 37.4046C41.2882 37.4573 40.7793 37.3077 40.3745 36.979L36.8965 34.1571L35.6711 33.1535C35.3947 32.927 34.9864 32.9677 34.7588 33.2437C34.532 33.5202 34.5723 33.928 34.8491 34.1549L38.1044 36.8208C38.5119 37.1544 38.7569 37.627 38.7949 38.1518C38.833 38.6766 38.6581 39.1796 38.3026 39.5682C37.9591 39.9438 37.4895 40.1617 36.9806 40.1832C36.4792 40.2113 35.9855 40.0273 35.6116 39.6821L33.8666 38.0733C33.6036 37.8308 33.194 37.8482 32.9512 38.1099C32.7083 38.3725 32.7249 38.7821 32.9878 39.0242L34.7328 40.633C34.765 40.6629 34.8031 40.6839 34.8366 40.712C34.3348 41.3047 33.6166 41.7027 32.791 41.821C32.0572 41.926 31.2902 41.8072 30.5501 41.4923L31.33 40.5995C31.8989 39.9487 32.1797 39.1153 32.1207 38.2532C32.0617 37.3912 31.6703 36.6037 31.0192 36.0356C30.4579 35.5465 29.7741 35.2991 29.0823 35.2584C30.0595 33.9198 29.881 32.0346 28.6082 30.9252C27.8073 30.2275 26.759 30.0051 25.7925 30.2141C25.8046 30.0573 25.8171 29.9006 25.8064 29.7407C25.7474 28.8791 25.356 28.0912 24.7049 27.5235C23.3592 26.351 21.3101 26.4904 20.1357 27.8344L18.5695 29.6268C17.6795 28.5374 17.0342 27.6307 16.7618 27.0192C15.5665 24.3322 13.4452 22.3505 12.3974 21.4808L18.8552 10.4761C23.5613 8.73911 27.6539 8.42376 30.6429 9.54212C30.5655 9.58813 30.485 9.62833 30.4086 9.67612C26.5066 12.0934 24.3161 16.0314 24.398 20.4808C24.4181 21.567 24.8443 22.589 25.5987 23.358C26.0307 23.7984 26.6085 24.041 27.2262 24.041H27.2302C27.8491 24.0396 28.4278 23.7953 28.859 23.3523L32.4215 19.696C33.1558 18.943 34.3575 18.888 35.1575 19.5705L46.7483 29.4654C47.6146 30.2032 47.8116 31.4443 47.2168 32.4143ZM52.0762 21.4159C51.2887 21.8286 50.4577 22.5418 50.1219 23.9304C49.7431 26.177 49.0347 27.792 47.9628 28.847C47.8492 28.718 47.7253 28.5956 47.5911 28.4812L36.0004 18.5864C35.3823 18.0593 34.6202 17.7989 33.8591 17.7989C32.9964 17.7989 32.136 18.1339 31.4933 18.7932L27.9308 22.4494C27.7448 22.6406 27.4952 22.746 27.2287 22.7464C26.9738 22.7652 26.7117 22.6419 26.5252 22.4521C26.0033 21.9202 25.7082 21.2113 25.6943 20.4565C25.6205 16.4747 27.5883 12.9458 31.0922 10.7756C35.3399 8.14485 40.8156 8.07922 45.7741 10.5858L49.304 16.6006L52.0762 21.4159Z" fill="#1E1E1E"/>
<path d="M63.0219 17.26L55.0481 3.67302C54.693 3.06693 54.1223 2.63548 53.4422 2.45862C52.7615 2.28174 52.0531 2.37911 51.4462 2.7342L46.0643 5.88392C45.0456 6.48064 44.5894 7.65882 44.8456 8.7518C40.5443 7.02549 35.9939 7.0327 32.1169 8.77279C29.0137 7.18861 24.6895 7.2069 19.7041 8.81254C19.993 7.70309 19.5373 6.49133 18.4993 5.8835L13.1179 2.73377C12.5111 2.37824 11.8032 2.28043 11.122 2.45819C10.4417 2.6355 9.87152 3.06651 9.51604 3.67259L1.54345 17.2603C1.18791 17.8664 1.08998 18.5739 1.26751 19.2537C1.44506 19.9331 1.87662 20.5025 2.48349 20.8576L7.86533 24.0073C8.27453 24.2467 8.72981 24.3691 9.19133 24.3691C9.41449 24.3691 9.639 24.3405 9.86037 24.2829C10.541 24.1056 11.1113 23.6746 11.4668 23.0685L11.7328 22.6156C12.511 23.2842 13.7789 24.5057 14.7865 26.0877L12.9851 28.1494C12.4162 28.8002 12.1354 29.6335 12.1944 30.4957C12.2535 31.3572 12.6448 32.1451 13.2959 32.7128C13.8912 33.2314 14.6385 33.5105 15.4203 33.5105C15.4949 33.5105 15.5701 33.5079 15.6448 33.5029C15.8044 33.4922 15.9583 33.4583 16.1116 33.4252C16.0996 33.5816 16.0871 33.7383 16.0978 33.8978C16.1564 34.7598 16.5477 35.5472 17.1993 36.1154C17.812 36.6496 18.5705 36.9109 19.3262 36.9109C19.5579 36.9109 19.7887 36.8845 20.015 36.8358C20.0038 36.9895 19.9904 37.1431 20.0011 37.2994C20.0601 38.1615 20.4514 38.9489 21.1026 39.5171C21.6978 40.0356 22.4447 40.3148 23.2269 40.3148C23.3016 40.3148 23.3767 40.3121 23.4519 40.3072C23.6115 40.2965 23.7654 40.2625 23.9192 40.2295C23.8427 41.2143 24.2059 42.2215 25.0064 42.9191C25.6016 43.4376 26.3485 43.7168 27.1307 43.7168C27.2049 43.7168 27.2801 43.7141 27.3552 43.7092C28.2183 43.6502 29.0068 43.2594 29.5752 42.6087L29.6678 42.5028C30.5046 42.9245 31.3851 43.1536 32.2567 43.1536C32.4973 43.1536 32.7375 43.1366 32.9754 43.1022C34.2155 42.9244 35.2919 42.2902 35.9999 41.3375C36.2897 41.4224 36.5885 41.4795 36.8975 41.4795C36.9436 41.4795 36.9901 41.4786 37.0366 41.4768C37.8921 41.4407 38.6819 41.0731 39.2597 40.4415C39.7968 39.8546 40.0728 39.11 40.0808 38.3258C40.5477 38.5755 41.0656 38.7103 41.5996 38.7103C41.7136 38.7103 41.8286 38.7045 41.9435 38.6929C42.8071 38.6027 43.5839 38.1815 44.13 37.5076C44.7744 36.7116 44.9645 35.7004 44.7588 34.7683C44.9229 34.7911 45.0875 34.8098 45.2538 34.8098C45.4631 34.8098 45.6738 34.7915 45.8831 34.754C46.896 34.574 47.7855 33.9679 48.3227 33.0916C48.9153 32.1247 49.0047 30.9857 48.6407 29.9879C50.0454 28.7377 50.9492 26.8252 51.391 24.1919C51.5788 23.4169 52.0051 22.8997 52.7766 22.5196L53.0994 23.0699C53.4545 23.676 54.0252 24.1074 54.7058 24.2843C54.9272 24.3419 55.1517 24.3705 55.3749 24.3705C55.8368 24.3705 56.2925 24.2481 56.7013 24.0087L62.0822 20.859C62.6891 20.5044 63.1211 19.9345 63.2982 19.2551C63.4767 18.5745 63.3775 17.8661 63.0219 17.26ZM15.5564 32.2112C15.0448 32.2496 14.539 32.0785 14.1476 31.7377C13.3404 31.0343 13.2568 29.8064 13.9612 29.0003L15.4558 27.2897C15.4965 27.3745 15.5403 27.4576 15.5792 27.5443C15.9187 28.3067 16.6932 29.3854 17.7062 30.6162L16.8891 31.5515C16.5474 31.9414 16.0743 32.1759 15.5564 32.2112ZM18.051 35.1393C17.6601 34.7985 17.4253 34.3264 17.39 33.8092C17.3551 33.2924 17.5233 32.7926 17.8645 32.4018L21.1126 28.6843C21.4959 28.2453 22.0357 28.0206 22.5773 28.0206C23.0303 28.0206 23.4856 28.1778 23.8528 28.4981C24.2437 28.8389 24.4784 29.311 24.5138 29.8282C24.5491 30.345 24.3805 30.8448 24.0397 31.2352L20.7916 34.953C20.0877 35.7588 18.8587 35.8423 18.051 35.1393ZM23.3639 39.0148C22.8469 39.0501 22.3456 38.8817 21.9551 38.5414C21.5643 38.2006 21.3295 37.7285 21.2942 37.2113C21.2588 36.6945 21.4274 36.1947 21.7682 35.8039L25.0163 32.0865C25.3996 31.6474 25.9394 31.4227 26.481 31.4227C26.934 31.4227 27.3893 31.58 27.7565 31.9002C28.5637 32.6037 28.6469 33.8315 27.943 34.6376L26.4511 36.3452L24.6953 38.3546C24.3541 38.745 23.8814 38.9796 23.3639 39.0148ZM27.2673 42.4165C26.7445 42.4504 26.249 42.2834 25.8585 41.943C25.0513 41.2396 24.9681 40.0117 25.672 39.2056L27.4273 37.1967C27.811 36.7576 28.3504 36.5329 28.8924 36.5329C29.3455 36.5329 29.8003 36.6902 30.1679 37.01C30.9752 37.7134 31.0588 38.9417 30.3544 39.7474L28.5991 41.7563C28.2579 42.1471 27.7847 42.3816 27.2673 42.4165ZM47.2168 32.4143C46.8733 32.9753 46.304 33.363 45.656 33.4782C45.0075 33.593 44.3393 33.4251 43.8228 33.0169L41.1497 30.9034L38.182 28.4768C37.9051 28.2507 37.4964 28.2905 37.2701 28.5679C37.0433 28.8443 37.084 29.2521 37.3613 29.4786L40.3312 31.9069L40.3389 31.9132L42.841 33.9593C43.6683 34.636 43.794 35.8616 43.1214 36.6922C42.7931 37.0973 42.3267 37.3501 41.8074 37.4046C41.2882 37.4573 40.7793 37.3077 40.3745 36.979L36.8965 34.1571L35.6711 33.1535C35.3947 32.927 34.9864 32.9677 34.7588 33.2437C34.532 33.5202 34.5723 33.928 34.8491 34.1549L38.1044 36.8208C38.5119 37.1544 38.7569 37.627 38.7949 38.1518C38.833 38.6766 38.6581 39.1796 38.3026 39.5682C37.9591 39.9438 37.4895 40.1617 36.9806 40.1832C36.4792 40.2113 35.9855 40.0273 35.6116 39.6821L33.8666 38.0733C33.6036 37.8308 33.194 37.8482 32.9512 38.1099C32.7083 38.3725 32.7249 38.7821 32.9878 39.0242L34.7328 40.633C34.765 40.6629 34.8031 40.6839 34.8366 40.712C34.3348 41.3047 33.6166 41.7027 32.791 41.821C32.0572 41.926 31.2902 41.8072 30.5501 41.4923L31.33 40.5995C31.8989 39.9487 32.1797 39.1153 32.1207 38.2532C32.0617 37.3912 31.6703 36.6037 31.0192 36.0356C30.4579 35.5465 29.7741 35.2991 29.0823 35.2584C30.0595 33.9198 29.881 32.0346 28.6082 30.9252C27.8073 30.2275 26.759 30.0051 25.7925 30.2141C25.8046 30.0573 25.8171 29.9006 25.8064 29.7407C25.7474 28.8791 25.356 28.0912 24.7049 27.5235C23.3592 26.351 21.3101 26.4904 20.1357 27.8344L18.5695 29.6268C17.6795 28.5374 17.0342 27.6307 16.7618 27.0192C15.5665 24.3322 13.4452 22.3505 12.3974 21.4808L18.8552 10.4761C23.5613 8.73911 27.6539 8.42376 30.6429 9.54212C30.5655 9.58813 30.485 9.62833 30.4086 9.67612C26.5066 12.0934 24.3161 16.0314 24.398 20.4808C24.4181 21.567 24.8443 22.589 25.5987 23.358C26.0307 23.7984 26.6085 24.041 27.2262 24.041H27.2302C27.8491 24.0396 28.4278 23.7953 28.859 23.3523L32.4215 19.696C33.1558 18.943 34.3575 18.888 35.1575 19.5705L46.7483 29.4654C47.6146 30.2032 47.8116 31.4443 47.2168 32.4143ZM52.0762 21.4159C51.2887 21.8286 50.4577 22.5418 50.1219 23.9304C49.7431 26.177 49.0347 27.792 47.9628 28.847C47.8492 28.718 47.7253 28.5956 47.5911 28.4812L36.0004 18.5864C35.3823 18.0593 34.6202 17.7989 33.8591 17.7989C32.9964 17.7989 32.136 18.1339 31.4933 18.7932L27.9308 22.4494C27.7448 22.6406 27.4952 22.746 27.2287 22.7464C26.9738 22.7652 26.7117 22.6419 26.5252 22.4521C26.0033 21.9202 25.7082 21.2113 25.6943 20.4565C25.6205 16.4747 27.5883 12.9458 31.0922 10.7756C35.3399 8.14485 40.8156 8.07922 45.7741 10.5858L49.304 16.6006L52.0762 21.4159Z" stroke="#1E1E1E" stroke-width="0.323418" mask="url(#path-2-outside-1_5_324)"/>
<path d="M17.732 10.1762L17.7238 10.19L17.716 10.204L10.6384 23.0111C10.2283 23.7532 9.28918 24.0144 8.55478 23.5907L2.51928 20.1087C1.79991 19.6937 1.54861 18.777 1.95577 18.0531L10.2171 3.36637C10.6306 2.63129 11.5646 2.37523 12.2952 2.79669L18.2878 6.25399C19.0215 6.6773 19.2658 7.6199 18.83 8.34628L17.732 10.1762Z" fill="#EBFAFA" stroke="#1E1E1E" stroke-width="1.8" stroke-linecap="round"/>
</svg>
